<svg width="48" height="48" viewBox="0 0 48 48" fill="none" xmlns="http://www.w3.org/2000/svg">
<path d="M17.2912 35.5089L34.7088 18.0913" stroke="white" stroke-width="2" stroke-miterlimit="10"/>
<path d="M29.9088 13.2913L12.4912 30.7089" stroke="white" stroke-width="2" stroke-miterlimit="10"/>
<path d="M29.9936 27.5938L39.6936 37.2937" stroke="white" stroke-width="2" stroke-miterlimit="10"/>
<path d="M25.2 18.0002L23.1312 15.9314" stroke="white" stroke-width="2" stroke-miterlimit="10"/>
<path d="M22.8 30L35.3088 42.5089C36.3264 43.5265 37.6672 44.0232 39.0008 43.9992C41.7752 43.9496 44 41.6857 44 38.9089C44 37.6057 43.5032 36.3033 42.5088 35.3089L30 22.8" stroke="white" stroke-width="2" stroke-miterlimit="10"/>
<path d="M15.9312 23.1313L18 25.2001" stroke="white" stroke-width="2" stroke-miterlimit="10"/>
<path d="M36.3376 38.7375L37.2248 39.6247" stroke="white" stroke-width="2" stroke-miterlimit="10"/>
<path d="M27.544 29.9441L34.0312 36.4313" stroke="white" stroke-width="2" stroke-miterlimit="10"/>
<path d="M23.2 12C22.7584 12 22.3584 12.1792 22.0688 12.4688L12.4688 22.0688C12.1792 22.3584 12 22.7584 12 23.2C12 24.0832 12.7168 24.8 13.6 24.8C14.0416 24.8 14.4416 24.6208 14.7312 24.3312L24.3312 14.7312C24.6208 14.4416 24.8 14.0416 24.8 13.6C24.8 12.716 24.0832 12 23.2 12Z" stroke="white" stroke-width="2" stroke-miterlimit="10"/>
<path d="M18.9944 15.5432L14.0568 10.6056L14.7312 9.9312C15.0208 9.6416 15.2 9.2416 15.2 8.8C15.2 8.2064 14.8736 7.6952 14.3936 7.4184L8.7808 4.2112C8.5488 4.0808 8.2848 4 8 4C7.5584 4 7.1584 4.1792 6.8688 4.4688L4.4688 6.8688C4.1792 7.1584 4 7.5584 4 8C4 8.2848 4.0808 8.5488 4.2112 8.7808L7.4184 14.3936C7.6952 14.8736 8.2064 15.2 8.8 15.2C9.2416 15.2 9.6416 15.0208 9.9312 14.7312L10.6056 14.0568L15.5432 18.9944" stroke="white" stroke-width="2" stroke-miterlimit="10"/>
<path d="M10.4 30.3999C6.4232 30.3999 3.2 33.6231 3.2 37.5999C3.2 38.5479 3.388 39.4511 3.7208 40.2807L8.4032 35.6031L12.4032 39.6031C12.4032 39.6031 9.7192 42.2855 7.7224 44.2799C8.5504 44.6119 9.4528 44.7999 10.4 44.7999C14.3768 44.7999 17.6 41.5759 17.6 37.5999C17.6 33.6231 14.3768 30.3999 10.4 30.3999V30.3999Z" stroke="white" stroke-width="2" stroke-miterlimit="10"/>
<path d="M38.8 13.2L34.8 9.2C34.8 9.2 37.64 6.3608 39.4792 4.5208C38.6504 4.188 37.748 4 36.8 4C32.8232 4 29.6 7.2232 29.6 11.2C29.6 15.176 32.8232 18.4 36.8 18.4C40.7768 18.4 44 15.176 44 11.2C44 10.252 43.812 9.3496 43.4792 8.5208L38.8 13.2Z" stroke="white" stroke-width="2" stroke-miterlimit="10"/>
</svg>
