<svg width="48" height="48" viewBox="0 0 48 48" fill="none" xmlns="http://www.w3.org/2000/svg">
<path d="M44 25.6001V42.4001H20V25.6001" stroke="white" stroke-width="2" stroke-miterlimit="10"/>
<path d="M35.2 40.0002V31.2002H40.8V40.0002" stroke="white" stroke-width="2" stroke-miterlimit="10"/>
<path d="M23.2 32H32V36.8H23.2V32Z" stroke="white" stroke-width="2" stroke-miterlimit="10"/>
<path d="M26.9176 14.3857C23.6448 12.4017 20.6888 9.60328 17.6 6.02808C13 11.3537 8.80001 14.7249 3.20001 16.8001C3.20001 24.7537 4.78161 36.2633 17.3792 41.7033" stroke="white" stroke-width="2" stroke-miterlimit="10"/>
<path d="M7.91281 27.3433C8.25441 28.3465 8.65441 29.2913 9.11441 30.1801" stroke="white" stroke-width="2" stroke-miterlimit="10"/>
<path d="M6.46402 19.2568C6.58642 21.5176 6.88322 23.5864 7.36082 25.4736" stroke="white" stroke-width="2" stroke-miterlimit="10"/>
<path d="M46.88 28.4801L32 13.6001L17.1232 28.4769" stroke="white" stroke-width="2" stroke-miterlimit="10"/>
</svg>
