<svg width="48" height="48" viewBox="0 0 48 48" fill="none" xmlns="http://www.w3.org/2000/svg">
<path d="M36 9H6V44H36V9Z" stroke="white" stroke-width="2" stroke-miterlimit="10"/>
<path d="M11 9V4H41V39H36" stroke="white" stroke-width="2" stroke-miterlimit="10"/>
<path d="M20.4 34.4001L25 39.0001L31.5875 32.4126" stroke="white" stroke-width="2" stroke-miterlimit="10"/>
<path d="M11 27C11 25.3375 13.6875 24 17 24C20.3125 24 23 25.3375 23 27" stroke="white" stroke-width="2" stroke-miterlimit="10"/>
<path d="M17 20C18.6569 20 20 18.6569 20 17C20 15.3431 18.6569 14 17 14C15.3431 14 14 15.3431 14 17C14 18.6569 15.3431 20 17 20Z" stroke="white" stroke-width="2" stroke-miterlimit="10"/>
<path d="M24 14H32" stroke="white" stroke-width="2" stroke-miterlimit="10"/>
<path d="M24 19H32" stroke="white" stroke-width="2" stroke-miterlimit="10"/>
</svg>
